<svg width="160" height="30" viewBox="0 0 160 30" fill="none" xmlns="http://www.w3.org/2000/svg">
<path fill-rule="evenodd" clip-rule="evenodd" d="M9.06247 15.0415V11.7985L0.0171313 15.1307H0V18.4586H0.0171313L9.06247 21.7909V18.5435L4.42416 16.7862L9.06247 15.0373V15.0415Z" fill="#F7DD43"/>
<path fill-rule="evenodd" clip-rule="evenodd" d="M61.4543 21.6295V18.3865L66.0884 16.6418L61.4543 14.8972V11.6541L70.4868 14.9863H70.5082V18.3185H70.4868L61.4543 21.6338V21.6295ZM57.5741 7.06543L52.2634 23.9642H55.4155L60.7263 7.06543H57.5741Z" fill="#F7DD43"/>
<path fill-rule="evenodd" clip-rule="evenodd" d="M22.3521 11.3527C23.2515 12.329 23.7226 13.6194 23.6669 14.9396V22.1389H20.5147V15.6018C20.5533 14.8717 20.3177 14.1585 19.8552 13.5897C19.4183 13.0846 18.7716 12.8044 18.0992 12.8342C16.1248 12.8342 15.1355 14.1925 15.1355 16.905V22.1389H11.9833V10.3212H15.1355V11.3867C16.1377 10.4231 17.4953 9.90944 18.8915 9.96887C20.1935 9.91369 21.4527 10.4188 22.3521 11.3527Z" fill="#F7DD43"/>
<path fill-rule="evenodd" clip-rule="evenodd" d="M27.6842 5.24011V22.1389H30.8364V5.24011H27.6842Z" fill="#F7DD43"/>
<path fill-rule="evenodd" clip-rule="evenodd" d="M48.6615 22.1389H46.0318L43.4536 15.1773L40.8496 22.1389H38.2199L33.8001 10.3H37.1706L39.6547 17.3804L42.2158 10.3H44.6784L47.2396 17.4016L49.7236 10.3H53.0942L48.67 22.1389H48.6615Z" fill="#F7DD43"/>
<path d="M87.6261 29.9099C84.3962 29.9099 81.003 29.3033 78.3435 27.8424V2.06746C80.9613 0.647867 84.3546 0 87.6261 0C90.8976 0 94.2108 0.606582 96.8255 2.06746V11.957H90.2408V5.2274C89.4653 4.90347 88.5233 4.78278 87.5845 4.78278C86.6456 4.78278 85.7837 4.90347 84.9666 5.2274V24.6825C85.742 25.0064 86.6424 25.1271 87.5845 25.1271C88.5265 25.1271 89.4237 25.0064 90.2408 24.6825V17.9561H96.8255V27.8456C94.2492 29.2652 90.856 29.8718 87.6261 29.913V29.9099Z" fill="#F7DD43"/>
<path d="M109.175 29.9099C105.698 29.9099 102.346 29.1794 99.6868 27.6804V2.18814C102.305 0.730438 105.66 0 109.175 0C112.69 0 115.961 0.689153 118.579 2.18814V27.6804C116.003 29.1794 112.609 29.8686 109.175 29.9099ZM111.997 5.30997C111.222 4.98604 110.28 4.82407 109.136 4.82407C107.992 4.82407 107.092 4.98604 106.313 5.30997V24.5618C107.089 24.927 108.031 25.089 109.136 25.089C110.242 25.089 111.18 24.927 111.997 24.5618V5.30997Z" fill="#F7DD43"/>
<path d="M130.069 18.966H128.31V29.5446H121.645V0.365219H130.069C134.078 0.365219 137.103 1.17505 139.474 2.83601V16.4952C137.144 18.118 134.075 18.966 130.069 18.966ZM132.851 5.38937C132.239 4.94475 131.418 4.7415 130.028 4.7415H128.227V14.5897H130.028C131.377 14.5897 132.194 14.3865 132.851 13.9831V5.38937Z" fill="#F7DD43"/>
<path d="M153.415 29.5446V18.966H148.51V29.5446H141.887V2.14685C144.299 0.727263 147.693 0 150.964 0C154.236 0 157.587 0.730439 160 2.14685V29.5446H153.415ZM153.415 5.06543C152.72 4.7415 151.861 4.57953 150.961 4.57953C150.061 4.57953 149.202 4.7415 148.506 5.06543V14.3452H153.412V5.06543H153.415Z" fill="#F7DD43"/>
</svg>
